Coordinates
version=1
nRows=20
nColumns=38
inDegrees=no

Units are S.I. units (second, meters, Newtons, ...)
If the header above contains a line with 'inDegrees', this indicates whether rotational values are in degrees (yes) or radians (no).

endheader
time	pelvis_tilt	pelvis_list	pelvis_rotation	pelvis_tx	pelvis_ty	pelvis_tz	hip_flexion_r	hip_adduction_r	hip_rotation_r	knee_angle_r	ankle_angle_r	subtalar_angle_r	mtp_angle_r	hip_flexion_l	hip_adduction_l	hip_rotation_l	knee_angle_l	ankle_angle_l	subtalar_angle_l	mtp_angle_l	lumbar_extension	lumbar_bending	lumbar_rotation	arm_flex_r	arm_add_r	arm_rot_r	elbow_flex_r	pro_sup_r	wrist_flex_r	wrist_dev_r	arm_flex_l	arm_add_l	arm_rot_l	elbow_flex_l	pro_sup_l	wrist_flex_l	wrist_dev_l
0	0.383174	1.47015	-1.8381	0.718929	1.8851	0.928225	-0.0365603	-0.155277	-0.252688	0.274156	0.142713	0	0	-0.190073	0.0600065	-0.182268	0	0.0404903	0	0	-0.148936	-0.0255837	-0.106	-0.0199488	-0.313613	0.307231	0.584179	1.51514	0	0	-0.0182024	-0.343603	0.433855	0.679633	1.43994	0	0
0.01	0.3839	1.47116	-1.83875	0.7189	1.88485	0.92817	-0.0365878	-0.15492	-0.250293	0.272693	0.142172	0	0	-0.18941	0.0595245	-0.181839	0	0.0410252	0	0	-0.147298	-0.0249667	-0.105606	-0.0170748	-0.313967	0.306366	0.577611	1.51037	0	0	-0.0162898	-0.337955	0.418885	0.66769	1.43899	0	0
0.02	0.380452	1.47101	-1.8355	0.718811	1.88472	0.928165	-0.0374614	-0.154223	-0.248899	0.271508	0.141617	0	0	-0.189742	0.0592236	-0.18306	0	0.0416632	0	0	-0.147439	-0.0247686	-0.105362	-0.0169924	-0.314999	0.304265	0.57824	1.50429	0	0	-0.0156123	-0.339483	0.417327	0.665472	1.43381	0	0
0.03	0.349938	1.47045	-1.80692	0.718138	1.88467	0.928263	-0.0392808	-0.149762	-0.24718	0.270332	0.141046	0	0	-0.190396	0.0566618	-0.201088	0	0.0450713	0	0	-0.148698	-0.0230732	-0.103823	-0.0164872	-0.314682	0.303597	0.577946	1.49718	0	0	-0.0157713	-0.342924	0.416126	0.665201	1.42757	0	0
0.04	0.398621	1.45775	-1.86228	0.717127	1.88308	0.929972	-0.0521639	-0.15816	-0.244444	0.26722	0.139764	0	0	-0.202783	0.0654874	-0.201414	0	0.0443243	0	0	-0.158698	-0.0341974	-0.0989889	-0.0156702	-0.312118	0.304739	0.574906	1.48784	0	0	-0.0160493	-0.346643	0.414318	0.662501	1.41938	0	0
0.05	0.387421	1.47013	-1.84187	0.718743	1.88447	0.928187	-0.0373867	-0.155452	-0.250345	0.273985	0.142701	0	0	-0.190807	0.0597847	-0.181992	0	0.0413816	0	0	-0.148072	-0.0259121	-0.105544	-0.0169751	-0.318559	0.306385	0.581303	1.47461	0	0	-0.0138477	-0.344376	0.415138	0.6597	1.40867	0	0
0.06	0.385954	1.46979	-1.84032	0.718679	1.88439	0.928219	-0.0381129	-0.15516	-0.249812	0.273495	0.142369	0	0	-0.19132	0.0596122	-0.181882	0	0.0413904	0	0	-0.148441	-0.0259597	-0.105399	-0.0169576	-0.319946	0.308652	0.582361	1.45911	0	0	-0.0134099	-0.346307	0.41631	0.658755	1.39585	0	0
0.07	0.384213	1.46939	-1.8385	0.718574	1.88428	0.928253	-0.0394044	-0.154604	-0.248568	0.272022	0.141851	0	0	-0.191871	0.0594311	-0.182395	0	0.0416076	0	0	-0.148855	-0.0260598	-0.105331	-0.0167286	-0.321257	0.311367	0.583421	1.43965	0	0	-0.013148	-0.348687	0.418988	0.658295	1.38043	0	0
0.08	0.367407	1.46665	-1.83091	0.717499	1.8868	0.928562	-0.0344115	-0.153336	-0.231102	0.276473	0.142401	0	0	-0.191421	0.0607872	-0.199225	0	0.0449715	0	0	-0.161099	-0.0257609	-0.0952622	-0.00913185	-0.324424	0.318719	0.588097	1.41699	0	0	-0.00136384	-0.35218	0.425314	0.660257	1.36069	0	0
0.09	0.44077	1.45101	-1.89851	0.71798	1.88397	0.930516	-0.0572907	-0.166619	-0.247284	0.269109	0.1404	0	0	-0.214965	0.0690403	-0.178335	0	0.0295476	0	0	-0.166401	-0.0398024	-0.102334	-0.0139518	-0.322373	0.328927	0.583534	1.37408	0	0	-0.0112929	-0.357658	0.433853	0.661002	1.32226	0	0
0.1	0.41697	1.45036	-1.87754	0.717092	1.88349	0.930641	-0.0595996	-0.162606	-0.24447	0.267258	0.139423	0	0	-0.216248	0.0669334	-0.194873	0	0.0313624	0	0	-0.166855	-0.0386311	-0.0998792	-0.0138047	-0.323787	0.340979	0.584891	1.33362	0	0	-0.0122013	-0.362946	0.444223	0.663532	1.28616	0	0
0.11	0.447839	1.45276	-1.90555	0.71779	1.88374	0.930297	-0.0541249	-0.167051	-0.248179	0.272108	0.142792	0	0	-0.213162	0.0691739	-0.176863	0	0.029005	0	0	-0.163365	-0.0404573	-0.101065	-0.0150429	-0.327747	0.353589	0.589188	1.28152	0	0	-0.00938168	-0.365208	0.46127	0.662114	1.23919	0	0
0.12	0.575682	1.47382	-2.03081	0.718041	1.88343	0.927843	-0.0188977	-0.176009	-0.260496	0.292903	0.158119	0	0	-0.185357	0.0738092	-0.178542	0	0.0366547	0	0	-0.133891	-0.0461722	-0.101553	-0.0234119	-0.328478	0.358545	0.597178	1.21208	0	0	-0.00969662	-0.37902	0.510531	0.669882	1.18329	0	0
0.13	0.444171	1.45064	-1.91597	0.716458	1.88496	0.930361	-0.0468981	-0.168527	-0.228772	0.280229	0.143512	0	0	-0.214429	0.0720726	-0.191095	0	0.0294006	0	0	-0.1691	-0.041884	-0.0873825	-0.0111136	-0.330514	0.355093	0.591689	1.28112	0	0	-0.00631248	-0.369615	0.465621	0.66503	1.23931	0	0
0.14	0.432342	1.44963	-1.90435	0.716275	1.8848	0.9306	-0.0498702	-0.166549	-0.22649	0.277091	0.14071	0	0	-0.216185	0.0707957	-0.191831	0	0.0295995	0	0	-0.171855	-0.0406634	-0.0873867	-0.0112624	-0.315432	0.274956	0.576651	1.52798	0	0	-0.00939191	-0.355285	0.392955	0.648429	1.43562	0	0
0.15	0.439509	1.45086	-1.89683	0.717311	1.88325	0.930534	-0.0581613	-0.16531	-0.245947	0.269205	0.14024	0	0	-0.215797	0.0679358	-0.178979	0	0.0306311	0	0	-0.166846	-0.0407358	-0.101493	-0.0152256	-0.311531	0.27076	0.573306	1.53077	0	0	-0.0146461	-0.359531	0.395093	0.649579	1.42226	0	0
0.16	0.45666	1.43682	-1.92302	0.715442	1.88218	0.932611	-0.07373	-0.17072	-0.240184	0.263341	0.137371	0	0	-0.22912	0.0757105	-0.197855	0	0.0302792	0	0	-0.178781	-0.0515718	-0.0955664	-0.0123989	-0.304369	0.266612	0.564353	1.53246	0	0	-0.0169281	-0.363872	0.391311	0.64941	1.4016	0	0
0.17	0.458028	1.43678	-1.92405	0.715376	1.88208	0.93262	-0.0737518	-0.17083	-0.240548	0.263691	0.137523	0	0	-0.229225	0.0756613	-0.197505	0	0.030292	0	0	-0.178256	-0.052439	-0.0956706	-0.00477349	-0.300093	0.284731	0.546976	1.43858	0	0	-0.0173332	-0.369222	0.406438	0.652461	1.39435	0	0
0.18	0.444945	1.45122	-1.90088	0.717104	1.88324	0.930573	-0.0572596	-0.165699	-0.246972	0.270949	0.140868	0	0	-0.215777	0.0679744	-0.172699	0	0.027507	0	0	-0.16656	-0.0404621	-0.101599	-0.0166635	-0.314648	0.291997	0.577198	1.46618	0	0	-0.0152976	-0.344175	0.244769	0.67156	1.24671	0	0
0.19	0.456389	1.4486	-1.91584	0.716742	1.88279	0.931084	-0.0598827	-0.167786	-0.246353	0.270466	0.141086	0	0	-0.214363	0.0713592	-0.176455	0	0.0309938	0	0	-0.167728	-0.0443783	-0.101997	-0.0155848	-0.311475	0.286815	0.574692	1.52342	0	0	-0.0216244	-0.355781	0.354176	0.640507	1.43506	0	0
